<svg xmlns="http://www.w3.org/2000/svg" width="1920.001" height="289.928" viewBox="0 0 1920.001 289.928">
  <g id="Group_1" data-name="Group 1" transform="translate(0 5.667)">
    <circle id="Ellipse_9" data-name="Ellipse 9" cx="12" cy="12" r="12" transform="translate(116 54)" fill="#e1e9f3"/>
    <circle id="Ellipse_10" data-name="Ellipse 10" cx="12" cy="12" r="12" transform="translate(236 54)" fill="#e1e9f3"/>
    <circle id="Ellipse_11" data-name="Ellipse 11" cx="12" cy="12" r="12" transform="translate(196 54)" fill="#e1e9f3"/>
    <circle id="Ellipse_12" data-name="Ellipse 12" cx="12" cy="12" r="12" transform="translate(316 54)" fill="#e1e9f3"/>
    <circle id="Ellipse_13" data-name="Ellipse 13" cx="12" cy="12" r="12" transform="translate(276 54)" fill="#e1e9f3"/>
    <circle id="Ellipse_14" data-name="Ellipse 14" cx="12" cy="12" r="12" transform="translate(156 54)" fill="#e1e9f3"/>
    <circle id="Ellipse_15" data-name="Ellipse 15" cx="12" cy="12" r="12" transform="translate(316 54)" fill="#e1e9f3"/>
    <circle id="Ellipse_16" data-name="Ellipse 16" cx="12" cy="12" r="12" transform="translate(436 54)" fill="#e1e9f3"/>
    <circle id="Ellipse_17" data-name="Ellipse 17" cx="12" cy="12" r="12" transform="translate(396 54)" fill="#e1e9f3"/>
    <circle id="Ellipse_19" data-name="Ellipse 19" cx="12" cy="12" r="12" transform="translate(476 54)" fill="#e1e9f3"/>
    <circle id="Ellipse_20" data-name="Ellipse 20" cx="12" cy="12" r="12" transform="translate(356 54)" fill="#e1e9f3"/>
    <circle id="Ellipse_21" data-name="Ellipse 21" cx="12" cy="12" r="12" transform="translate(157 94)" fill="#e1e9f3"/>
    <circle id="Ellipse_23" data-name="Ellipse 23" cx="12" cy="12" r="12" transform="translate(237 94)" fill="#e1e9f3"/>
    <circle id="Ellipse_24" data-name="Ellipse 24" cx="12" cy="12" r="12" transform="translate(316 94)" fill="#e1e9f3"/>
    <circle id="Ellipse_25" data-name="Ellipse 25" cx="12" cy="12" r="12" transform="translate(276 94)" fill="#e1e9f3"/>
    <circle id="Ellipse_26" data-name="Ellipse 26" cx="12" cy="12" r="12" transform="translate(197 94)" fill="#e1e9f3"/>
    <circle id="Ellipse_27" data-name="Ellipse 27" cx="12" cy="12" r="12" transform="translate(316 94)" fill="#e1e9f3"/>
    <circle id="Ellipse_28" data-name="Ellipse 28" cx="12" cy="12" r="12" transform="translate(436 94)" fill="#e1e9f3"/>
    <circle id="Ellipse_29" data-name="Ellipse 29" cx="12" cy="12" r="12" transform="translate(396 94)" fill="#e1e9f3"/>
    <circle id="Ellipse_30" data-name="Ellipse 30" cx="12" cy="12" r="12" transform="translate(476 94)" fill="#e1e9f3"/>
    <circle id="Ellipse_31" data-name="Ellipse 31" cx="12" cy="12" r="12" transform="translate(356 94)" fill="#e1e9f3"/>
    <circle id="Ellipse_32" data-name="Ellipse 32" cx="12" cy="12" r="12" transform="translate(116 94)" fill="#e1e9f3"/>
    <circle id="Ellipse_33" data-name="Ellipse 33" cx="12" cy="12" r="12" transform="translate(157 134)" fill="#e1e9f3"/>
    <circle id="Ellipse_34" data-name="Ellipse 34" cx="12" cy="12" r="12" transform="translate(237 134)" fill="#e1e9f3"/>
    <circle id="Ellipse_35" data-name="Ellipse 35" cx="12" cy="12" r="12" transform="translate(276 134)" fill="#e1e9f3"/>
    <circle id="Ellipse_36" data-name="Ellipse 36" cx="12" cy="12" r="12" transform="translate(197 134)" fill="#e1e9f3"/>
    <circle id="Ellipse_37" data-name="Ellipse 37" cx="12" cy="12" r="12" transform="translate(316 134)" fill="#e1e9f3"/>
    <circle id="Ellipse_38" data-name="Ellipse 38" cx="12" cy="12" r="12" transform="translate(436 134)" fill="#e1e9f3"/>
    <circle id="Ellipse_39" data-name="Ellipse 39" cx="12" cy="12" r="12" transform="translate(396 134)" fill="#e1e9f3"/>
    <circle id="Ellipse_40" data-name="Ellipse 40" cx="12" cy="12" r="12" transform="translate(476 134)" fill="#e1e9f3"/>
    <circle id="Ellipse_41" data-name="Ellipse 41" cx="12" cy="12" r="12" transform="translate(356 134)" fill="#e1e9f3"/>
    <circle id="Ellipse_42" data-name="Ellipse 42" cx="12" cy="12" r="12" transform="translate(116 134)" fill="#e1e9f3"/>
    <circle id="Ellipse_43" data-name="Ellipse 43" cx="12" cy="12" r="12" transform="translate(157 174)" fill="#e1e9f3"/>
    <circle id="Ellipse_44" data-name="Ellipse 44" cx="12" cy="12" r="12" transform="translate(237 174)" fill="#e1e9f3"/>
    <circle id="Ellipse_45" data-name="Ellipse 45" cx="12" cy="12" r="12" transform="translate(276 174)" fill="#e1e9f3"/>
    <circle id="Ellipse_46" data-name="Ellipse 46" cx="12" cy="12" r="12" transform="translate(197 174)" fill="#e1e9f3"/>
    <circle id="Ellipse_47" data-name="Ellipse 47" cx="12" cy="12" r="12" transform="translate(316 174)" fill="#e1e9f3"/>
    <circle id="Ellipse_51" data-name="Ellipse 51" cx="12" cy="12" r="12" transform="translate(356 174)" fill="#e1e9f3"/>
    <circle id="Ellipse_52" data-name="Ellipse 52" cx="12" cy="12" r="12" transform="translate(116 174)" fill="#e1e9f3"/>
    <circle id="Ellipse_53" data-name="Ellipse 53" cx="12" cy="12" r="12" transform="translate(157 214)" fill="#e1e9f3"/>
    <circle id="Ellipse_54" data-name="Ellipse 54" cx="12" cy="12" r="12" transform="translate(237 214)" fill="#e1e9f3"/>
    <circle id="Ellipse_55" data-name="Ellipse 55" cx="12" cy="12" r="12" transform="translate(276 214)" fill="#e1e9f3"/>
    <circle id="Ellipse_56" data-name="Ellipse 56" cx="12" cy="12" r="12" transform="translate(197 214)" fill="#e1e9f3"/>
    <circle id="Ellipse_57" data-name="Ellipse 57" cx="12" cy="12" r="12" transform="translate(316 214)" fill="#e1e9f3"/>
    <circle id="Ellipse_61" data-name="Ellipse 61" cx="12" cy="12" r="12" transform="translate(356 214)" fill="#e1e9f3"/>
    <circle id="Ellipse_62" data-name="Ellipse 62" cx="12" cy="12" r="12" transform="translate(116 214)" fill="#e1e9f3"/>
    <circle id="Ellipse_63" data-name="Ellipse 63" cx="12" cy="12" r="12" transform="translate(157 254)" fill="#e1e9f3"/>
    <circle id="Ellipse_64" data-name="Ellipse 64" cx="12" cy="12" r="12" transform="translate(237 254)" fill="#e1e9f3"/>
    <circle id="Ellipse_65" data-name="Ellipse 65" cx="12" cy="12" r="12" transform="translate(276 254)" fill="#e1e9f3"/>
    <circle id="Ellipse_66" data-name="Ellipse 66" cx="12" cy="12" r="12" transform="translate(197 254)" fill="#e1e9f3"/>
    <circle id="Ellipse_67" data-name="Ellipse 67" cx="12" cy="12" r="12" transform="translate(316 254)" fill="#e1e9f3"/>
    <circle id="Ellipse_71" data-name="Ellipse 71" cx="12" cy="12" r="12" transform="translate(356 254)" fill="#e1e9f3"/>
    <circle id="Ellipse_72" data-name="Ellipse 72" cx="12" cy="12" r="12" transform="translate(116 254)" fill="#e1e9f3"/>
    <path id="Path_1" data-name="Path 1" d="M0,18.082C1931,314.333,1920,283.333,1920,283.333v-289H0Z" fill="#03062f"/>
  </g>
</svg>
